/* XPM */
static char *_807c38e25de43ad952d903ce699607dYbYWnU21lbwGWBPo[] = {
/* columns rows colors chars-per-pixel */
"64 64 81 1 ",
"  c None",
". c black",
"X c #010101",
"o c #020202",
"O c #040404",
"+ c gray3",
"@ c #090909",
"# c gray5",
"$ c #0E0E0E",
"% c gray6",
"& c #101010",
"* c #151515",
"= c #161616",
"- c gray9",
"; c #181818",
": c gray10",
"> c #1B1B1B",
", c #282828",
"< c gray16",
"1 c gray17",
"2 c #2C2C2C",
"3 c gray19",
"4 c gray20",
"5 c #353535",
"6 c gray23",
"7 c #3E3E3E",
"8 c gray26",
"9 c #464646",
"0 c gray29",
"q c #4B4B4B",
"w c gray30",
"e c #5B5B5B",
"r c gray36",
"t c gray37",
"y c #5F5F5F",
"u c #606060",
"i c #676767",
"p c #6F6F6F",
"a c #717171",
"s c gray48",
"d c gray49",
"f c gray51",
"g c #838383",
"h c #868686",
"j c #898989",
"k c gray55",
"l c #8D8D8D",
"z c #909090",
"x c #9B9B9B",
"c c #A0A0A0",
"v c gray63",
"b c #A4A4A4",
"n c #A7A7A7",
"m c #BBBBBB",
"M c #BCBCBC",
"N c #C0C0C0",
"B c #C5C5C5",
"V c gray78",
"C c #CACACA",
"Z c gray81",
"A c #D0D0D0",
"S c gray84",
"D c #D7D7D7",
"F c gray86",
"G c #DFDFDF",
"H c gray88",
"J c #E2E2E2",
"K c gray89",
"L c #E6E6E6",
"P c #E7E7E7",
"I c #EAEAEA",
"U c gray93",
"Y c #EEEEEE",
"T c #EFEFEF",
"R c #F3F3F3",
"E c gray96",
"W c #F8F8F8",
"Q c gray98",
"! c gray99",
"~ c #FDFDFD",
"^ c white",
/* pixels */
"                          ...........                           ",
"                      ...................                       ",
"                   .........................                    ",
"                 .............................                  ",
"               .................................                ",
"              ...................................               ",
"             .............................      ...             ",
"           ............................          ...            ",
"          ...................... ....              ..           ",
"         ......................                     ..          ",
"        ...................... ..                    ..         ",
"       ..........................                     ..        ",
"       .......................  ..                     ..       ",
"      .......................    .                     ..       ",
"     ......................                             ..      ",
"     .....................                               ..     ",
"    .....................                                ..     ",
"   .....................                                  ..    ",
"   ....................                                    .    ",
"   ...................                                     ..   ",
"  ...................                                      ..   ",
"  ..................                                        .   ",
" ..................                                         ..  ",
" ..................     .                                   ..  ",
" .................     ..                                    .  ",
" ................     ..                                     .  ",
".................    ..                 .                    .. ",
".................                       ..                   .. ",
".................                        .                   .. ",
".................                        ..                   . ",
"................                         ..                   . ",
"...............                          ..                   . ",
"..............                           ...                  . ",
".............                            ......               . ",
"............       ....                 ..........            . ",
"...........      .......               ............          .. ",
"............    .........             ..............         .. ",
".............   ..........          .................        .. ",
" .............  ..........        ...................        .  ",
" .............. ..........      .....................        .  ",
" .........................    ........................      ..  ",
" .........................   .........................      ..  ",
"  .......................   ..........................      .   ",
"  ......................    .........................      ..   ",
"   ..................      .O&&+.q*7..&.O#....<*.....      ..   ",
"   ..................     ..7!EEwb6T&.!y>H....xy.....      .    ",
"   ....................   ..6V*sxxd!De!H<G:VIaTHx....     ..    ",
"    ....................  ..6EHRim9T2#QjvHjzZ8ba:...     ..     ",
"     .......................6C<gxM6F7OQ#PHhIk5kg#...     ..     ",
"     .......................4FGC4x4qZyF.yM*MHu:mv..     ..      ",
"      .............................................    ..       ",
"       ...........................................     ..       ",
"       ..........................................     ..        ",
"        ........................................     ..         ",
"         .......................................    ..          ",
"          .....................................    ..           ",
"           ..................................    ...            ",
"             ...............................    ...             ",
"              .............................   ...               ",
"               ..........................    ...                ",
"                 ......................   ....                  ",
"                   ................... .....                    ",
"                      ...................                       ",
"                          ...........                           "
};
