/* XPM */
static char *_c556a75388945209278abc2b666816007ruRyfqsVJ5K4ue[] = {
/* columns rows colors chars-per-pixel */
"16 16 14 1 ",
"  c None",
". c black",
"X c #0B0B0B",
"o c #0E0E0E",
"O c #353535",
"+ c #3C3C3C",
"@ c #3E3E3E",
"# c #464646",
"$ c gray32",
"% c gray35",
"& c #656565",
"* c DimGray",
"= c #7C7C7C",
"- c #7E7E7E",
/* pixels */
"     ......     ",
"   ........     ",
"  ......        ",
" ......         ",
" .....          ",
".....           ",
"....            ",
"....            ",
"...       ..    ",
"... ..   ....   ",
"...... ......   ",
" ..... ==&%*X   ",
" ......#@O$@o   ",
"  ..........    ",
"   ........     ",
"     .....      "
};
