/* XPM */
static char *_6d37a6cb51a4b0098c7dd876ed32368cnve85S6j2kZhD9r[] = {
/* columns rows colors chars-per-pixel */
"32 32 30 1 ",
"  c None",
". c black",
"X c #040404",
"o c #2C2C2C",
"O c #2D2D2D",
"+ c #434343",
"@ c #4E4E4E",
"# c gray31",
"$ c #535353",
"% c #5B5B5B",
"& c gray36",
"* c #5F5F5F",
"= c #656565",
"- c gray47",
"; c #797979",
": c gray50",
"> c #808080",
", c gray52",
"< c gray54",
"1 c #8D8D8D",
"2 c #909090",
"3 c gray58",
"4 c gray59",
"5 c #9A9A9A",
"6 c gray61",
"7 c #A2A2A2",
"8 c gray67",
"9 c #B9B9B9",
"0 c gray73",
"q c #D8D8D8",
/* pixels */
"            ........            ",
"         .............          ",
"       .................        ",
"      ..............    ..      ",
"     ........... .        .     ",
"    .............          .    ",
"   ............                 ",
"  ...........               .   ",
"  ..........                 .  ",
" ..........                  .  ",
" .........                    . ",
" ........                     . ",
".........  .                  . ",
".........           .           ",
".........           .          .",
"........             .         .",
".......             ..         .",
"......   ...        .....      .",
"......  .....      .......      ",
"....... .....   ...........   . ",
" ............  ............   . ",
" ...........  .............   . ",
" ..........  .$:#*X*+..#...  .  ",
"  .......... .1548%q7:60O.   .  ",
"  ............,4<=%;02>;O.  .   ",
"   ......................       ",
"    ....................   .    ",
"     ...................  .     ",
"      ................  ..      ",
"       ..............  .        ",
"         .............          ",
"            ........            "
};
