<?xml version="1.0" standalone="no"?>
<!DOCTYPE svg PUBLIC "-//W3C//DTD SVG 20010904//EN"
 "http://www.w3.org/TR/2001/REC-SVG-20010904/DTD/svg10.dtd">
<svg version="1.0" xmlns="http://www.w3.org/2000/svg"
 width="256.000000pt" height="256.000000pt" viewBox="0 0 256.000000 256.000000"
 preserveAspectRatio="xMidYMid meet">

<g transform="translate(0.000000,256.000000) scale(0.100000,-0.100000)"
fill="#000000" stroke="none">
<path d="M1067 2545 c-253 -41 -499 -167 -683 -350 -150 -149 -259 -326 -322
-525 -44 -140 -57 -228 -56 -395 0 -169 17 -275 65 -413 151 -428 491 -732
934 -834 123 -29 372 -31 495 -5 325 70 599 248 789 514 231 323 296 750 175
1136 -139 438 -502 766 -954 863 -105 22 -334 27 -443 9z m869 -257 c209 -144
372 -357 458 -595 122 -342 83 -732 -104 -1044 -152 -252 -374 -431 -650 -523
-58 -19 -125 -38 -150 -41 l-45 -6 66 29 c246 108 450 294 554 507 55 110 75
187 75 281 0 96 -24 165 -77 224 -59 66 -129 99 -227 108 l-78 7 -24 75 c-27
87 -73 167 -140 245 -50 59 -81 76 -41 23 68 -91 103 -212 89 -304 -16 -95
-104 -177 -265 -246 -108 -47 -157 -79 -218 -145 -58 -61 -95 -120 -127 -198
-13 -33 -25 -62 -27 -63 -8 -8 -170 132 -170 146 0 10 18 20 54 30 72 20 140
84 143 133 5 104 -16 164 -76 217 -41 36 -86 47 -163 39 -91 -9 -133 -52 -155
-160 -8 -38 -17 -57 -25 -55 -7 2 -47 32 -88 68 -54 47 -75 72 -75 89 0 25 33
61 179 192 l84 75 -18 27 c-28 44 -15 117 33 181 74 97 214 247 305 327 81 70
215 169 230 169 3 0 23 -28 44 -62 37 -61 38 -61 41 -31 6 61 -34 153 -66 153
-5 0 -27 -16 -50 -36 -47 -40 -52 -37 -20 9 60 88 96 104 159 71 29 -15 34
-14 123 25 110 47 303 108 349 110 10 1 52 -22 93 -51z m-568 -1536 c3 -17 -2
-22 -17 -22 -14 0 -21 6 -21 18 0 38 33 41 38 4z m72 -12 c0 -27 3 -30 30 -30
39 0 41 -27 3 -32 -48 -5 -40 -78 8 -78 11 0 19 -7 19 -15 0 -16 -46 -21 -66
-7 -27 18 -40 76 -36 160 2 25 6 32 22 32 16 0 20 -7 20 -30z m452 3 c2 -22 9
-29 31 -31 15 -2 27 -9 27 -17 0 -8 -12 -15 -27 -17 -22 -2 -29 -9 -31 -31 -3
-24 2 -30 27 -40 38 -14 41 -37 4 -37 -37 0 -63 27 -63 65 0 17 -6 37 -12 43
-10 10 -10 17 0 32 6 11 12 29 12 40 0 31 28 24 32 -7z m-596 -12 c7 -14 9
-33 4 -45 -4 -12 -4 -30 0 -42 5 -12 3 -31 -4 -45 -10 -21 -19 -24 -79 -27
l-67 -3 0 96 0 96 67 -3 c60 -3 69 -6 79 -27z m299 -26 c17 -30 33 -55 38 -55
4 0 7 25 7 55 0 48 2 55 20 55 19 0 20 -7 20 -95 0 -95 0 -95 -25 -95 -20 0
-31 12 -57 58 l-33 57 -3 -57 c-3 -50 -6 -58 -22 -58 -18 0 -20 7 -20 95 0 92
1 95 23 95 17 0 30 -13 52 -55z m214 -2 l22 -18 -30 -35 c-35 -40 -39 -55 -12
-41 14 8 22 7 30 -3 9 -11 7 -18 -11 -30 -30 -21 -50 -20 -82 5 -20 16 -26 29
-26 59 0 30 6 43 26 59 33 26 55 26 83 4z m-439 -63 c0 -63 -2 -70 -20 -70
-18 0 -20 7 -20 70 0 63 2 70 20 70 18 0 20 -7 20 -70z"/>
<path d="M970 1636 c-36 -29 -85 -77 -108 -105 -41 -48 -42 -51 -18 -45 14 3
38 2 53 -4 28 -9 29 -8 85 99 31 60 56 109 55 109 -2 0 -32 -24 -67 -54z"/>
<path d="M1190 700 c0 -15 7 -20 29 -20 29 0 57 21 44 33 -3 4 -21 7 -40 7
-26 0 -33 -4 -33 -20z"/>
<path d="M1190 625 c0 -13 8 -16 38 -13 20 2 37 8 37 13 0 6 -17 11 -37 13
-30 3 -38 0 -38 -13z"/>
<path d="M1740 661 c-20 -39 -4 -43 23 -6 15 21 16 25 3 25 -8 0 -20 -9 -26
-19z"/>
</g>
</svg>
